<mxfile host="app.diagrams.net" agent="Mozilla/5.0 (Macintosh; Intel Mac OS X 10_15_7) AppleWebKit/605.1.15 (KHTML, like Gecko) Version/18.6 Safari/605.1.15" version="28.0.7">
  <diagram id="UbXs57A1e0GbLdzOePv5" name="Página-2">
    <mxGraphModel dx="830" dy="602" grid="1" gridSize="10" guides="1" tooltips="1" connect="1" arrows="1" fold="1" page="1" pageScale="1" pageWidth="827" pageHeight="1169" math="0" shadow="0">
      <root>
        <mxCell id="0" />
        <mxCell id="1" parent="0" />
        <mxCell id="Cw25p6jGzkMcqCD25laR-2" value="chat" style="swimlane;fontStyle=1;align=center;verticalAlign=middle;childLayout=stackLayout;horizontal=1;startSize=29;horizontalStack=0;resizeParent=1;resizeParentMax=0;resizeLast=0;collapsible=0;marginBottom=0;html=1;whiteSpace=wrap;" parent="1" vertex="1">
          <mxGeometry x="340" y="240" width="200" height="90" as="geometry" />
        </mxCell>
        <mxCell id="Cw25p6jGzkMcqCD25laR-3" value="mensagens:list&amp;lt;Mensagem&amp;gt;&lt;div&gt;+usuario1: Usuario&lt;/div&gt;&lt;div&gt;&lt;span style=&quot;color: rgba(0, 0, 0, 0); font-family: monospace; font-size: 0px; text-align: start; text-wrap-mode: nowrap;&quot;&gt;%3CmxGraphModel%3E%3Croot%3E%3CmxCell%20id%3D%220%22%2F%3E%3CmxCell%20id%3D%221%22%20parent%3D%220%22%2F%3E%3CmxCell%20id%3D%222%22%20value%3D%22%22%20style%3D%22endArrow%3DdiamondThin%3BendFill%3D0%3BendSize%3D24%3Bhtml%3D1%3Brounded%3D0%3BexitX%3D0.989%3BexitY%3D0.397%3BexitDx%3D0%3BexitDy%3D0%3BentryX%3D0%3BentryY%3D0.5%3BentryDx%3D0%3BentryDy%3D0%3BexitPerimeter%3D0%3B%22%20edge%3D%221%22%20parent%3D%221%22%3E%3CmxGeometry%20width%3D%22160%22%20relative%3D%221%22%20as%3D%22geometry%22%3E%3CmxPoint%20x%3D%2268%22%20y%3D%2275%22%20as%3D%22sourcePoint%22%2F%3E%3CmxPoint%20x%3D%22260%22%20y%3D%2270%22%20as%3D%22targetPoint%22%2F%3E%3C%2FmxGeometry%3E%3C%2FmxCell%3E%3C%2Froot%3E%3C%2FmxGraphModel%3E&lt;/span&gt;&lt;span style=&quot;background-color: transparent; color: light-dark(rgb(0, 0, 0), rgb(255, 255, 255));&quot;&gt;+usuario2&lt;/span&gt;&lt;span style=&quot;background-color: transparent; color: light-dark(rgb(0, 0, 0), rgb(255, 255, 255));&quot;&gt;: Usuario&lt;/span&gt;&lt;/div&gt;" style="text;html=1;strokeColor=none;fillColor=none;align=center;verticalAlign=middle;spacingLeft=4;spacingRight=4;overflow=hidden;rotatable=0;points=[[0,0.5],[1,0.5]];portConstraint=eastwest;whiteSpace=wrap;" parent="Cw25p6jGzkMcqCD25laR-2" vertex="1">
          <mxGeometry y="29" width="200" height="61" as="geometry" />
        </mxCell>
        <mxCell id="HhPAcezMUfhIl607pHYH-1" value="" style="endArrow=diamondThin;endFill=0;endSize=24;html=1;rounded=0;exitX=0.989;exitY=0.397;exitDx=0;exitDy=0;exitPerimeter=0;" parent="1" edge="1">
          <mxGeometry width="160" relative="1" as="geometry">
            <mxPoint x="540" y="282" as="sourcePoint" />
            <mxPoint x="740" y="280" as="targetPoint" />
          </mxGeometry>
        </mxCell>
        <mxCell id="FKg5o58veQZZsz4cx_0e-1" value="Mensagem" style="swimlane;fontStyle=1;align=center;verticalAlign=middle;childLayout=stackLayout;horizontal=1;startSize=29;horizontalStack=0;resizeParent=1;resizeParentMax=0;resizeLast=0;collapsible=0;marginBottom=0;html=1;whiteSpace=wrap;" parent="1" vertex="1">
          <mxGeometry x="740" y="230" width="200" height="90" as="geometry" />
        </mxCell>
        <mxCell id="FKg5o58veQZZsz4cx_0e-2" value="+ conteudo: string&lt;div&gt;+dataHora: DateTime&lt;/div&gt;&lt;div&gt;+remetente: Usuario&lt;/div&gt;" style="text;html=1;strokeColor=none;fillColor=none;align=center;verticalAlign=middle;spacingLeft=4;spacingRight=4;overflow=hidden;rotatable=0;points=[[0,0.5],[1,0.5]];portConstraint=eastwest;whiteSpace=wrap;" parent="FKg5o58veQZZsz4cx_0e-1" vertex="1">
          <mxGeometry y="29" width="200" height="61" as="geometry" />
        </mxCell>
        <mxCell id="FKg5o58veQZZsz4cx_0e-3" value="Usuario" style="swimlane;fontStyle=1;align=center;verticalAlign=middle;childLayout=stackLayout;horizontal=1;startSize=29;horizontalStack=0;resizeParent=1;resizeParentMax=0;resizeLast=0;collapsible=0;marginBottom=0;html=1;whiteSpace=wrap;" parent="1" vertex="1">
          <mxGeometry x="720" y="495" width="200" height="110" as="geometry" />
        </mxCell>
        <mxCell id="FKg5o58veQZZsz4cx_0e-4" value="nome: string&lt;div&gt;email: string&lt;/div&gt;&lt;div&gt;senha: string&lt;/div&gt;&lt;div&gt;telefone: string&lt;/div&gt;&lt;div&gt;enum(Cliente, Empresario)&lt;/div&gt;&lt;div&gt;&lt;br&gt;&lt;/div&gt;" style="text;html=1;strokeColor=none;fillColor=none;align=center;verticalAlign=middle;spacingLeft=4;spacingRight=4;overflow=hidden;rotatable=0;points=[[0,0.5],[1,0.5]];portConstraint=eastwest;whiteSpace=wrap;" parent="FKg5o58veQZZsz4cx_0e-3" vertex="1">
          <mxGeometry y="29" width="200" height="81" as="geometry" />
        </mxCell>
        <mxCell id="FKg5o58veQZZsz4cx_0e-7" value="Oficina" style="swimlane;fontStyle=1;align=center;verticalAlign=middle;childLayout=stackLayout;horizontal=1;startSize=29;horizontalStack=0;resizeParent=1;resizeParentMax=0;resizeLast=0;collapsible=0;marginBottom=0;html=1;whiteSpace=wrap;" parent="1" vertex="1">
          <mxGeometry x="380" y="570" width="200" height="110" as="geometry" />
        </mxCell>
        <mxCell id="FKg5o58veQZZsz4cx_0e-8" value="nomeOficina: string&lt;div&gt;cnpj: string&lt;/div&gt;&lt;div&gt;endereco: string&lt;/div&gt;&lt;div&gt;listaServico:list&amp;lt;Serviço&amp;gt;&lt;/div&gt;" style="text;html=1;strokeColor=none;fillColor=none;align=center;verticalAlign=middle;spacingLeft=4;spacingRight=4;overflow=hidden;rotatable=0;points=[[0,0.5],[1,0.5]];portConstraint=eastwest;whiteSpace=wrap;" parent="FKg5o58veQZZsz4cx_0e-7" vertex="1">
          <mxGeometry y="29" width="200" height="81" as="geometry" />
        </mxCell>
        <mxCell id="FKg5o58veQZZsz4cx_0e-9" value="Servico" style="swimlane;fontStyle=1;align=center;verticalAlign=middle;childLayout=stackLayout;horizontal=1;startSize=29;horizontalStack=0;resizeParent=1;resizeParentMax=0;resizeLast=0;collapsible=0;marginBottom=0;html=1;whiteSpace=wrap;" parent="1" vertex="1">
          <mxGeometry x="720" y="650" width="200" height="80" as="geometry" />
        </mxCell>
        <mxCell id="FKg5o58veQZZsz4cx_0e-11" value="nome: string&lt;div&gt;preco: double&lt;/div&gt;&lt;div&gt;&lt;span style=&quot;background-color: transparent; color: light-dark(rgb(0, 0, 0), rgb(255, 255, 255));&quot;&gt;tempo: time&lt;/span&gt;&lt;/div&gt;&lt;div&gt;&lt;br&gt;&lt;/div&gt;" style="text;html=1;strokeColor=none;fillColor=none;align=center;verticalAlign=middle;spacingLeft=4;spacingRight=4;overflow=hidden;rotatable=0;points=[[0,0.5],[1,0.5]];portConstraint=eastwest;whiteSpace=wrap;" parent="FKg5o58veQZZsz4cx_0e-9" vertex="1">
          <mxGeometry y="29" width="200" height="51" as="geometry" />
        </mxCell>
        <mxCell id="FKg5o58veQZZsz4cx_0e-12" value="Agenda" style="swimlane;fontStyle=1;align=center;verticalAlign=middle;childLayout=stackLayout;horizontal=1;startSize=29;horizontalStack=0;resizeParent=1;resizeParentMax=0;resizeLast=0;collapsible=0;marginBottom=0;html=1;whiteSpace=wrap;" parent="1" vertex="1">
          <mxGeometry x="1030" y="590" width="240" height="110" as="geometry" />
        </mxCell>
        <mxCell id="FKg5o58veQZZsz4cx_0e-13" value="&lt;div&gt;+listaCompromisso: List&amp;lt;Compromisso&amp;gt;&lt;/div&gt;" style="text;html=1;strokeColor=none;fillColor=none;align=center;verticalAlign=middle;spacingLeft=4;spacingRight=4;overflow=hidden;rotatable=0;points=[[0,0.5],[1,0.5]];portConstraint=eastwest;whiteSpace=wrap;" parent="FKg5o58veQZZsz4cx_0e-12" vertex="1">
          <mxGeometry y="29" width="240" height="81" as="geometry" />
        </mxCell>
        <mxCell id="FKg5o58veQZZsz4cx_0e-14" value="Veiculo" style="swimlane;fontStyle=1;align=center;verticalAlign=middle;childLayout=stackLayout;horizontal=1;startSize=29;horizontalStack=0;resizeParent=1;resizeParentMax=0;resizeLast=0;collapsible=0;marginBottom=0;html=1;whiteSpace=wrap;" parent="1" vertex="1">
          <mxGeometry x="1041" y="450" width="200" height="110" as="geometry" />
        </mxCell>
        <mxCell id="FKg5o58veQZZsz4cx_0e-15" value="marca: string&lt;div&gt;modelo: string&lt;/div&gt;&lt;div&gt;ano: int&lt;/div&gt;&lt;div&gt;placa: string&lt;/div&gt;&lt;div&gt;quilometragem: double&lt;/div&gt;&lt;div&gt;&lt;br&gt;&lt;/div&gt;" style="text;html=1;strokeColor=none;fillColor=none;align=center;verticalAlign=middle;spacingLeft=4;spacingRight=4;overflow=hidden;rotatable=0;points=[[0,0.5],[1,0.5]];portConstraint=eastwest;whiteSpace=wrap;" parent="FKg5o58veQZZsz4cx_0e-14" vertex="1">
          <mxGeometry y="29" width="200" height="81" as="geometry" />
        </mxCell>
        <mxCell id="FKg5o58veQZZsz4cx_0e-22" value="" style="endArrow=diamondThin;endFill=0;endSize=24;html=1;rounded=0;exitX=0.989;exitY=0.397;exitDx=0;exitDy=0;exitPerimeter=0;entryX=0.004;entryY=0.296;entryDx=0;entryDy=0;entryPerimeter=0;" parent="FKg5o58veQZZsz4cx_0e-14" target="FKg5o58veQZZsz4cx_0e-13" edge="1">
          <mxGeometry width="160" relative="1" as="geometry">
            <mxPoint x="-121" y="92" as="sourcePoint" />
            <mxPoint x="79" y="90" as="targetPoint" />
          </mxGeometry>
        </mxCell>
        <mxCell id="FKg5o58veQZZsz4cx_0e-21" value="" style="endArrow=diamondThin;endFill=0;endSize=24;html=1;rounded=0;exitX=0.989;exitY=0.397;exitDx=0;exitDy=0;exitPerimeter=0;entryX=0;entryY=0.5;entryDx=0;entryDy=0;" parent="FKg5o58veQZZsz4cx_0e-14" target="FKg5o58veQZZsz4cx_0e-15" edge="1">
          <mxGeometry width="160" relative="1" as="geometry">
            <mxPoint x="-121" y="92" as="sourcePoint" />
            <mxPoint x="79" y="90" as="targetPoint" />
          </mxGeometry>
        </mxCell>
        <mxCell id="FKg5o58veQZZsz4cx_0e-16" value="Manutencao" style="swimlane;fontStyle=1;align=center;verticalAlign=middle;childLayout=stackLayout;horizontal=1;startSize=29;horizontalStack=0;resizeParent=1;resizeParentMax=0;resizeLast=0;collapsible=0;marginBottom=0;html=1;whiteSpace=wrap;" parent="1" vertex="1">
          <mxGeometry x="1370" y="450" width="200" height="110" as="geometry" />
        </mxCell>
        <mxCell id="FKg5o58veQZZsz4cx_0e-17" value="tipo: string&lt;div&gt;data: date&lt;/div&gt;&lt;div&gt;valor: double&lt;/div&gt;&lt;div&gt;&lt;span style=&quot;background-color: transparent; color: light-dark(rgb(0, 0, 0), rgb(255, 255, 255));&quot;&gt;status: enum&lt;/span&gt;&lt;/div&gt;&lt;div&gt;&lt;br&gt;&lt;/div&gt;" style="text;html=1;strokeColor=none;fillColor=none;align=center;verticalAlign=middle;spacingLeft=4;spacingRight=4;overflow=hidden;rotatable=0;points=[[0,0.5],[1,0.5]];portConstraint=eastwest;whiteSpace=wrap;" parent="FKg5o58veQZZsz4cx_0e-16" vertex="1">
          <mxGeometry y="29" width="200" height="81" as="geometry" />
        </mxCell>
        <mxCell id="FKg5o58veQZZsz4cx_0e-18" value="compromisso" style="swimlane;fontStyle=1;align=center;verticalAlign=middle;childLayout=stackLayout;horizontal=1;startSize=29;horizontalStack=0;resizeParent=1;resizeParentMax=0;resizeLast=0;collapsible=0;marginBottom=0;html=1;whiteSpace=wrap;" parent="1" vertex="1">
          <mxGeometry x="1380" y="599" width="200" height="110" as="geometry" />
        </mxCell>
        <mxCell id="FKg5o58veQZZsz4cx_0e-19" value="&lt;div&gt;data:date&lt;/div&gt;&lt;div&gt;hora:time&lt;/div&gt;&lt;div&gt;descricao:string&lt;/div&gt;&lt;div&gt;local:string&lt;/div&gt;" style="text;html=1;strokeColor=none;fillColor=none;align=center;verticalAlign=middle;spacingLeft=4;spacingRight=4;overflow=hidden;rotatable=0;points=[[0,0.5],[1,0.5]];portConstraint=eastwest;whiteSpace=wrap;" parent="FKg5o58veQZZsz4cx_0e-18" vertex="1">
          <mxGeometry y="29" width="200" height="81" as="geometry" />
        </mxCell>
        <mxCell id="FKg5o58veQZZsz4cx_0e-20" value="" style="endArrow=diamondThin;endFill=0;endSize=24;html=1;rounded=0;exitX=0.989;exitY=0.397;exitDx=0;exitDy=0;exitPerimeter=0;" parent="1" target="FKg5o58veQZZsz4cx_0e-4" edge="1">
          <mxGeometry width="160" relative="1" as="geometry">
            <mxPoint x="580" y="622" as="sourcePoint" />
            <mxPoint x="780" y="620" as="targetPoint" />
          </mxGeometry>
        </mxCell>
        <mxCell id="FKg5o58veQZZsz4cx_0e-23" value="" style="endArrow=diamondThin;endFill=0;endSize=24;html=1;rounded=0;exitX=0.989;exitY=0.397;exitDx=0;exitDy=0;exitPerimeter=0;entryX=0;entryY=0.02;entryDx=0;entryDy=0;entryPerimeter=0;" parent="1" target="FKg5o58veQZZsz4cx_0e-11" edge="1">
          <mxGeometry width="160" relative="1" as="geometry">
            <mxPoint x="580" y="626" as="sourcePoint" />
            <mxPoint x="780" y="624" as="targetPoint" />
          </mxGeometry>
        </mxCell>
        <mxCell id="FKg5o58veQZZsz4cx_0e-24" value="" style="endArrow=diamondThin;endFill=0;endSize=24;html=1;rounded=0;exitX=0.989;exitY=0.397;exitDx=0;exitDy=0;exitPerimeter=0;entryX=-0.005;entryY=0.358;entryDx=0;entryDy=0;entryPerimeter=0;" parent="1" target="FKg5o58veQZZsz4cx_0e-17" edge="1">
          <mxGeometry width="160" relative="1" as="geometry">
            <mxPoint x="1241" y="506" as="sourcePoint" />
            <mxPoint x="1441" y="504" as="targetPoint" />
          </mxGeometry>
        </mxCell>
        <mxCell id="FKg5o58veQZZsz4cx_0e-25" value="" style="endArrow=diamondThin;endFill=0;endSize=24;html=1;rounded=0;exitX=1;exitY=0.259;exitDx=0;exitDy=0;exitPerimeter=0;entryX=-0.015;entryY=0.407;entryDx=0;entryDy=0;entryPerimeter=0;" parent="1" source="FKg5o58veQZZsz4cx_0e-13" target="FKg5o58veQZZsz4cx_0e-19" edge="1">
          <mxGeometry width="160" relative="1" as="geometry">
            <mxPoint x="1290" y="502" as="sourcePoint" />
            <mxPoint x="1490" y="500" as="targetPoint" />
          </mxGeometry>
        </mxCell>
      </root>
    </mxGraphModel>
  </diagram>
</mxfile>
